<?xml version="1.0" standalone="no"?>
<!DOCTYPE svg PUBLIC "-//W3C//DTD SVG 20010904//EN"
 "http://www.w3.org/TR/2001/REC-SVG-20010904/DTD/svg10.dtd">
<svg version="1.0" xmlns="http://www.w3.org/2000/svg"
 width="300.000000pt" height="212.000000pt" viewBox="0 0 300.000000 212.000000"
 preserveAspectRatio="xMidYMid meet">
<metadata>
Created by potrace 1.10, written by Peter Selinger 2001-2011
</metadata>
<g transform="translate(0.000000,212.000000) scale(0.100000,-0.100000)"
fill="#000000" stroke="none">
<path d="M852 1898 c-8 -8 -12 -58 -12 -160 l0 -148 -59 0 c-45 0 -60 -4 -65
-16 -11 -29 13 -44 70 -44 l54 0 0 -95 0 -95 -59 0 c-45 0 -60 -4 -65 -16 -11
-29 13 -44 70 -44 l54 0 0 -95 0 -95 -54 0 c-35 0 -58 -5 -66 -15 -22 -26 5
-45 66 -45 l54 0 0 -95 0 -95 -54 0 c-57 0 -81 -15 -70 -44 5 -12 20 -16 65
-16 l59 0 0 -95 0 -95 -54 0 c-57 0 -81 -15 -70 -44 5 -12 20 -16 65 -16 l59
0 0 -148 c0 -102 4 -152 12 -160 16 -16 1413 -18 1423 -2 8 13 8 1667 0 1680
-10 16 -1408 13 -1423 -2z m1368 -838 l0 -790 -660 0 -660 0 0 130 0 130 60 0
c45 0 62 4 66 15 11 28 -16 45 -72 45 l-54 0 0 95 0 95 59 0 c63 0 76 8 66 40
-5 17 -15 20 -66 20 l-59 0 0 95 0 94 63 3 c59 3 62 4 62 28 0 24 -3 25 -62
28 l-63 3 0 94 0 94 63 3 c59 3 62 4 62 28 0 24 -3 25 -62 28 l-63 3 0 94 0
95 54 0 c56 0 83 17 72 45 -4 11 -21 15 -66 15 l-60 0 0 130 0 130 660 0 660
0 0 -790z m-1333 496 c-4 -9 -11 -16 -17 -16 -17 0 -24 31 -9 41 18 11 34 -5
26 -25z m3 -240 c0 -20 -19 -31 -32 -18 -6 6 -7 15 -4 21 10 16 36 13 36 -3z
m0 -256 c0 -11 -6 -20 -14 -20 -18 0 -29 16 -21 30 11 18 35 11 35 -10z m-4
-241 c10 -17 -13 -36 -27 -22 -12 12 -4 33 11 33 5 0 12 -5 16 -11z m2 -262
c2 -12 -3 -17 -17 -17 -12 0 -21 6 -21 13 0 31 32 34 38 4z"/>
<path d="M1558 1456 c-57 -21 -85 -42 -115 -88 -55 -83 -39 -220 32 -276 l26
-20 -54 -25 c-130 -59 -227 -204 -227 -338 0 -51 9 -64 39 -54 14 4 20 19 24
65 13 118 84 217 195 272 59 29 76 33 147 33 65 -1 91 -5 137 -27 113 -53 193
-159 205 -274 6 -57 22 -80 49 -70 14 5 16 18 12 74 -9 126 -93 252 -205 308
-32 16 -60 30 -62 32 -3 1 7 15 21 30 75 80 82 192 17 281 -52 72 -161 107
-241 77z m147 -75 c73 -42 98 -144 53 -211 -38 -55 -73 -75 -133 -75 -60 0
-95 20 -132 75 -27 38 -31 106 -9 148 42 82 140 109 221 63z"/>
</g>
</svg>
