<?xml version="1.0" standalone="no"?>
<!DOCTYPE svg PUBLIC "-//W3C//DTD SVG 20010904//EN"
 "http://www.w3.org/TR/2001/REC-SVG-20010904/DTD/svg10.dtd">
<svg version="1.0" xmlns="http://www.w3.org/2000/svg"
 width="300.000000pt" height="212.000000pt" viewBox="0 0 300.000000 212.000000"
 preserveAspectRatio="xMidYMid meet">
<metadata>
Created by potrace 1.10, written by Peter Selinger 2001-2011
</metadata>
<g transform="translate(0.000000,212.000000) scale(0.100000,-0.100000)"
fill="#000000" stroke="none">
<path d="M931 1892 c-19 -10 -43 -34 -53 -53 -17 -32 -18 -76 -18 -779 0 -703
1 -747 18 -779 38 -71 41 -71 477 -71 l390 0 198 198 197 197 0 600 c0 562 -1
602 -18 634 -10 19 -34 43 -53 53 -31 17 -70 18 -569 18 -499 0 -538 -1 -569
-18z m1137 -55 l22 -23 -2 -600 -3 -599 -115 -5 c-176 -8 -200 -32 -208 -210
-2 -58 -9 -113 -14 -122 -8 -17 -37 -18 -400 -18 -388 0 -392 0 -415 22 l-23
21 0 756 0 755 22 23 21 23 547 0 547 0 21 -23z m-38 -1277 c0 -3 -51 -56
-114 -119 l-113 -113 4 79 c6 104 27 146 73 153 46 7 150 6 150 0z"/>
<path d="M1093 1595 c-3 -9 -3 -18 -1 -21 7 -6 809 -6 816 0 2 3 2 12 -1 21
-6 13 -55 15 -407 15 -352 0 -401 -2 -407 -15z"/>
<path d="M1095 1439 c-4 -6 -3 -15 2 -20 5 -5 174 -8 409 -7 347 3 399 5 399
18 0 13 -52 15 -402 18 -284 1 -404 -1 -408 -9z"/>
<path d="M1101 1291 c-8 -5 -11 -16 -8 -25 6 -14 49 -16 407 -16 358 0 401 2
407 16 3 9 0 20 -8 25 -18 11 -780 11 -798 0z"/>
<path d="M1093 1124 c-3 -8 -1 -20 4 -25 5 -5 168 -8 409 -7 391 3 399 3 399
23 0 20 -8 20 -403 23 -359 2 -403 1 -409 -14z"/>
<path d="M1097 973 c-4 -3 -7 -12 -7 -20 0 -11 75 -13 411 -13 386 0 410 1
407 18 -3 16 -31 17 -404 20 -220 1 -403 -1 -407 -5z"/>
<path d="M1095 810 c-16 -26 14 -30 216 -30 202 0 209 1 209 20 0 19 -7 20
-209 20 -129 0 -212 -4 -216 -10z"/>
</g>
</svg>
