<?xml version="1.0" standalone="no"?>
<!DOCTYPE svg PUBLIC "-//W3C//DTD SVG 20010904//EN"
 "http://www.w3.org/TR/2001/REC-SVG-20010904/DTD/svg10.dtd">
<svg version="1.0" xmlns="http://www.w3.org/2000/svg"
 width="300.000000pt" height="212.000000pt" viewBox="0 0 300.000000 212.000000"
 preserveAspectRatio="xMidYMid meet">
<metadata>
Created by potrace 1.10, written by Peter Selinger 2001-2011
</metadata>
<g transform="translate(0.000000,212.000000) scale(0.100000,-0.100000)"
fill="#000000" stroke="none">
<path d="M2180 1878 c-70 -37 -84 -64 -88 -174 l-4 -94 -414 0 -414 0 0 30 c0
57 -43 111 -95 121 -17 4 -20 13 -20 59 0 42 -4 55 -15 55 -11 0 -16 -14 -18
-53 -3 -48 -6 -53 -35 -66 -47 -20 -78 -58 -84 -105 l-6 -41 -154 0 -155 0
-34 -34 -34 -34 0 -527 0 -527 34 -34 34 -34 280 0 279 0 -88 -87 c-49 -48
-89 -93 -89 -100 0 -11 83 -13 463 -11 l462 3 0 97 0 97 141 3 c133 3 143 4
181 30 25 16 49 44 62 71 21 44 21 48 19 665 l-3 621 -35 36 c-29 30 -80 55
-115 55 -6 0 -31 -10 -55 -22z m143 -58 c15 -17 27 -40 27 -53 0 -12 1 -254 2
-538 l3 -515 -34 23 c-43 29 -103 30 -154 3 l-37 -20 0 525 c0 581 -1 572 63
601 46 21 97 11 130 -26z m-1144 -105 c60 -30 64 -114 8 -161 -64 -54 -157 -8
-157 77 0 78 77 122 149 84z m928 -1123 c7 -2 16 5 19 15 17 56 37 85 68 99
108 52 202 -73 136 -181 -34 -55 -62 -64 -209 -66 l-132 -1 1 336 c0 302 -1
337 -16 343 -12 4 -108 -86 -358 -336 l-341 -341 -297 0 -297 0 -20 26 c-21
26 -21 36 -21 529 0 493 0 503 21 529 l20 26 162 -1 162 0 23 -29 23 -29 -68
-145 -68 -146 -62 0 c-56 0 -62 2 -65 23 -2 12 -10 22 -18 22 -12 0 -15 -13
-15 -60 0 -49 3 -60 18 -63 13 -3 17 3 17 22 0 25 3 26 54 26 l55 0 -65 -136
c-61 -128 -72 -171 -42 -158 7 3 43 69 79 147 65 139 67 142 100 145 30 2 36
-2 49 -30 44 -95 170 -96 215 -2 13 28 21 34 48 34 31 0 33 -3 91 -128 77
-166 84 -176 101 -162 11 9 1 36 -51 145 -35 74 -64 137 -64 140 0 3 22 5 49
5 44 0 50 -3 53 -22 2 -13 10 -23 18 -23 12 0 15 13 15 60 0 47 -3 60 -15 60
-8 0 -16 -10 -18 -22 -3 -21 -9 -23 -63 -23 l-60 0 -23 53 c-13 28 -44 94 -70
146 l-46 94 28 28 28 29 415 2 414 3 5 -489 c4 -379 8 -490 17 -494z m-937
903 c0 -2 29 -64 65 -139 l64 -136 -29 0 c-22 0 -30 5 -30 18 -1 49 -86 97
-144 81 -34 -9 -86 -61 -86 -84 0 -9 -10 -15 -26 -15 -31 0 -34 -9 44 156 l57
120 43 1 c23 0 42 -1 42 -2z m11 -234 c17 -18 29 -40 29 -56 0 -34 -50 -85
-83 -85 -32 0 -73 33 -81 65 -12 49 34 104 87 105 10 0 32 -13 48 -29z m769
-596 l0 -415 -417 0 -418 0 415 415 c228 228 416 415 417 415 2 0 3 -187 3
-415z"/>
<path d="M1621 576 c-101 -101 -171 -178 -167 -185 5 -7 66 -11 187 -11 l179
0 0 185 c0 142 -3 185 -13 185 -7 0 -90 -78 -186 -174z m162 -26 l-2 -131
-131 -2 c-71 -1 -130 -2 -130 -2 0 3 256 263 260 264 3 1 4 -58 3 -129z"/>
</g>
</svg>
