<?xml version="1.0" standalone="no"?>
<!DOCTYPE svg PUBLIC "-//W3C//DTD SVG 20010904//EN"
 "http://www.w3.org/TR/2001/REC-SVG-20010904/DTD/svg10.dtd">
<svg version="1.0" xmlns="http://www.w3.org/2000/svg"
 width="300.000000pt" height="212.000000pt" viewBox="0 0 300.000000 212.000000"
 preserveAspectRatio="xMidYMid meet">
<metadata>
Created by potrace 1.10, written by Peter Selinger 2001-2011
</metadata>
<g transform="translate(0.000000,212.000000) scale(0.100000,-0.100000)"
fill="#000000" stroke="none">
<path d="M820 1880 c-11 -11 -22 -30 -25 -42 -3 -13 -4 -348 -3 -746 l3 -722
-62 0 c-56 0 -63 -2 -88 -32 -31 -37 -28 -71 11 -106 l25 -22 825 0 825 0 24
25 c33 32 33 78 0 110 -20 21 -34 25 -84 25 l-61 0 -2 746 -3 746 -24 19 c-32
26 -82 25 -109 -4 -20 -21 -22 -34 -22 -145 l0 -122 -45 0 c-39 0 -47 4 -55
24 -31 83 -163 87 -205 6 l-16 -30 -129 0 c-119 0 -129 1 -135 20 -11 34 -63
70 -103 70 -47 0 -100 -32 -108 -65 -7 -30 -30 -33 -39 -5 -11 35 -63 70 -105
70 -42 0 -94 -35 -105 -70 -4 -13 -15 -20 -31 -20 l-24 0 0 125 c0 115 -2 126
-22 145 -28 26 -82 26 -108 0z m78 -773 l2 -737 -25 0 -25 0 0 733 c0 404 3
737 7 741 4 4 14 5 23 4 13 -3 15 -84 18 -741z m1250 0 l2 -737 -25 0 -25 0 0
733 c0 404 3 737 7 741 4 4 14 5 23 4 13 -3 15 -84 18 -741z m-998 523 c33
-33 24 -85 -17 -101 -25 -9 -60 2 -75 25 -23 34 10 96 52 96 11 0 29 -9 40
-20z m249 -4 c29 -30 24 -63 -12 -90 -26 -19 -30 -19 -55 -5 -37 20 -43 80
-10 103 31 22 51 20 77 -8z m486 -1 c14 -13 25 -31 25 -40 0 -9 -11 -27 -25
-40 -31 -31 -49 -31 -80 0 -14 13 -25 31 -25 40 0 9 11 27 25 40 13 14 31 25
40 25 9 0 27 -11 40 -25z m-880 -85 c11 -35 63 -70 105 -70 42 0 94 35 105 70
9 29 28 24 43 -10 36 -82 181 -73 208 12 5 16 18 18 139 18 l133 0 6 -25 c8
-31 60 -65 99 -65 40 0 84 26 102 60 14 27 21 30 60 30 l45 0 0 -195 0 -195
-64 0 c-56 0 -66 3 -71 20 -24 76 -169 80 -203 6 -14 -32 -28 -33 -43 -3 -19
38 -51 57 -97 57 -48 0 -97 -27 -107 -60 -8 -26 -32 -26 -40 0 -11 35 -54 60
-103 60 -40 0 -50 -5 -83 -40 l-38 -40 -126 0 -125 0 0 195 0 195 24 0 c16 0
27 -7 31 -20z m357 -357 c22 -20 24 -66 2 -87 -23 -24 -70 -20 -88 6 -21 30
-20 54 4 78 24 24 57 26 82 3z m246 1 c43 -30 17 -104 -36 -104 -54 0 -81 62
-45 102 20 22 51 23 81 2z m244 -1 c38 -34 11 -103 -40 -103 -56 0 -81 61 -42
100 24 24 57 26 82 3z m-624 -107 c29 -48 88 -66 138 -43 19 10 43 31 52 47
21 38 33 38 54 0 9 -16 33 -38 53 -47 32 -15 40 -16 78 -3 27 10 49 26 62 47
24 39 33 41 45 9 11 -31 48 -55 91 -62 41 -6 94 23 111 61 10 23 17 25 75 25
l63 0 0 -165 0 -165 -45 0 c-39 0 -46 4 -59 29 -20 37 -78 65 -119 57 -34 -7
-87 -52 -87 -73 0 -9 -18 -13 -67 -13 -65 0 -69 1 -85 30 -10 17 -34 38 -55
47 -33 13 -43 14 -78 2 -25 -9 -47 -26 -60 -46 -20 -32 -21 -32 -95 -32 -74 0
-75 0 -95 32 -13 20 -35 37 -60 46 -35 12 -45 11 -78 -2 -21 -9 -45 -30 -55
-47 -11 -19 -25 -30 -39 -30 -23 0 -23 1 -23 165 l0 165 129 0 129 0 20 -34z
m-76 -283 c22 -20 23 -61 1 -85 -34 -38 -103 -11 -103 40 0 54 62 81 102 45z
m380 0 c24 -21 23 -58 -2 -83 -55 -55 -136 24 -83 82 20 22 61 23 85 1z m362
-5 c9 -12 16 -30 16 -40 0 -26 -36 -58 -64 -58 -32 0 -69 45 -60 74 14 49 81
63 108 24z m-884 -93 c41 -77 167 -77 202 1 10 22 16 24 88 24 72 0 78 -2 88
-24 35 -76 159 -79 198 -4 14 26 18 28 82 28 59 0 68 -3 77 -22 15 -33 61 -62
100 -62 39 0 85 29 100 62 8 18 18 22 57 22 l48 0 0 -175 0 -175 -550 0 -550
0 0 175 0 175 23 0 c15 0 29 -9 37 -25z m1310 -390 c6 -8 9 -19 5 -25 -4 -7
-267 -10 -826 -10 -788 0 -819 1 -819 18 0 10 3 22 7 25 3 4 370 7 813 7 695
0 809 -2 820 -15z"/>
</g>
</svg>
