<?xml version="1.0" standalone="no"?>
<!DOCTYPE svg PUBLIC "-//W3C//DTD SVG 20010904//EN"
 "http://www.w3.org/TR/2001/REC-SVG-20010904/DTD/svg10.dtd">
<svg version="1.0" xmlns="http://www.w3.org/2000/svg"
 width="300.000000pt" height="212.000000pt" viewBox="0 0 300.000000 212.000000"
 preserveAspectRatio="xMidYMid meet">
<metadata>
Created by potrace 1.10, written by Peter Selinger 2001-2011
</metadata>
<g transform="translate(0.000000,212.000000) scale(0.100000,-0.100000)"
fill="#000000" stroke="none">
<path d="M1505 2111 c-3 -6 -5 -68 -4 -138 l1 -127 -59 -27 c-105 -47 -103
-47 -103 5 0 25 -4 47 -9 50 -5 3 -70 -20 -145 -51 l-136 -57 0 -152 c0 -151
0 -153 -22 -156 -20 -3 -23 -8 -20 -38 1 -19 4 -41 7 -48 3 -10 98 -12 447
-10 l443 3 3 48 c3 42 1 47 -17 47 -21 0 -21 5 -21 210 0 116 -4 210 -8 210
-4 0 -45 -16 -91 -35 -45 -19 -84 -35 -87 -35 -2 0 -5 69 -6 153 l-3 152 -82
3 c-48 2 -84 -1 -88 -7z m149 -162 c-1 -116 -5 -154 -15 -160 -30 -19 -39 -9
-39 42 0 54 1 53 -57 32 -10 -4 -13 14 -13 71 l0 76 45 0 c25 0 45 5 45 10 0
6 -20 10 -44 10 -43 0 -44 1 -48 35 l-4 35 66 0 65 0 -1 -151z m-336 -149 c-1
-28 1 -50 6 -50 4 0 62 23 127 50 65 28 121 50 124 50 3 0 5 -22 5 -50 0 -27
4 -50 9 -50 5 0 62 23 127 50 65 28 122 50 126 50 4 0 8 -88 8 -195 l0 -195
-390 0 -391 0 3 147 3 146 110 48 c61 26 116 48 123 48 10 1 13 -12 10 -49z
m572 -387 l0 -28 -430 0 -430 0 0 28 0 27 430 0 430 0 0 -27z"/>
<path d="M1167 1683 c-4 -3 -7 -24 -7 -45 l0 -38 50 0 50 0 0 45 0 45 -43 0
c-24 0 -47 -3 -50 -7z m71 -40 c-2 -22 -8 -28 -28 -28 -20 0 -26 6 -28 28 -3
24 0 27 28 27 28 0 31 -3 28 -27z"/>
<path d="M1397 1683 c-4 -3 -7 -24 -7 -45 l0 -38 50 0 50 0 0 45 0 45 -43 0
c-24 0 -47 -3 -50 -7z m73 -42 c0 -26 -3 -29 -27 -27 -46 5 -44 56 2 56 21 0
25 -5 25 -29z"/>
<path d="M1630 1646 l0 -46 51 0 50 0 -3 43 -3 42 -47 3 -48 3 0 -45z m78 -2
c-2 -21 -9 -28 -30 -30 -25 -2 -28 1 -28 27 0 26 3 29 31 29 27 0 30 -3 27
-26z"/>
<path d="M1972 1652 c2 -5 32 -33 68 -63 170 -144 278 -350 297 -566 3 -40 10
-73 16 -73 14 0 2 140 -18 215 -23 90 -89 221 -153 304 -68 90 -229 229 -210
183z"/>
<path d="M845 1503 c-88 -105 -160 -249 -185 -374 -21 -102 -26 -199 -10 -199
6 0 10 21 10 48 1 160 86 375 204 514 36 43 66 80 66 83 0 18 -27 -5 -85 -72z"/>
<path d="M2052 807 c-95 -95 -170 -176 -166 -180 4 -4 20 5 36 20 l28 27 0
-187 0 -187 280 0 280 0 0 187 0 187 30 -29 c53 -51 46 -16 -8 38 -49 50 -52
55 -52 105 0 51 0 52 -30 52 -24 0 -30 -4 -30 -22 0 -18 -18 -5 -93 70 -51 50
-95 92 -97 92 -3 0 -83 -78 -178 -173z m439 -294 c-1 -98 -3 -178 -4 -180 -1
-1 -40 -3 -86 -4 l-84 -2 2 101 2 102 -85 0 -85 0 -3 -101 -3 -101 -88 -1 -87
-2 0 185 0 185 132 132 131 131 130 -134 130 -134 -2 -177z m-31 276 c0 -17
-4 -28 -10 -24 -5 3 -10 17 -10 31 0 13 5 24 10 24 6 0 10 -14 10 -31z m-160
-368 l0 -89 -65 -4 -65 -3 0 93 0 92 65 0 65 0 0 -89z"/>
<path d="M2000 620 l0 -60 60 0 60 0 0 60 0 60 -60 0 -60 0 0 -60z m100 0 c0
-40 0 -40 -40 -40 -40 0 -40 0 -40 40 0 40 0 40 40 40 40 0 40 0 40 -40z"/>
<path d="M2340 620 l0 -60 65 0 66 0 -3 58 -3 57 -62 3 -63 3 0 -61z m110 0
l0 -40 -45 0 -45 0 0 40 0 40 45 0 45 0 0 -40z"/>
<path d="M420 625 l0 -225 35 0 c30 0 37 -5 49 -34 17 -40 45 -58 92 -58 44 0
83 26 97 63 l11 29 161 0 161 0 17 -36 c38 -78 144 -77 182 2 13 27 22 34 46
34 l30 0 -3 98 -3 97 -48 3 c-26 2 -50 9 -52 15 -1 7 -13 40 -25 75 l-22 62
-74 0 c-68 0 -74 2 -74 21 0 11 -13 34 -29 50 l-29 29 -261 0 -261 0 0 -225z
m535 180 c25 -24 25 -26 25 -205 l0 -180 -139 0 -139 0 -12 30 c-15 35 -55 60
-99 60 -35 0 -91 -43 -91 -71 0 -14 -7 -19 -30 -19 l-30 0 0 205 0 205 245 0
246 0 24 -25z m199 -127 c9 -29 20 -59 23 -65 3 -10 -17 -13 -86 -13 l-91 0 0
65 0 65 68 0 68 0 18 -52z m126 -178 c0 -74 -2 -80 -20 -80 -12 0 -24 10 -30
24 -13 35 -58 66 -95 66 -37 0 -82 -31 -95 -66 -5 -13 -16 -24 -25 -24 -12 0
-15 15 -15 80 l0 80 140 0 140 0 0 -80z m-645 -16 c19 -8 45 -55 45 -82 0 -36
-38 -72 -76 -72 -47 0 -70 14 -83 50 -23 69 44 130 114 104z m557 -24 c25 -26
29 -36 24 -63 -13 -66 -93 -91 -141 -42 -27 26 -31 54 -13 88 29 56 84 63 130
17z"/>
<path d="M890 341 c0 -31 191 -158 300 -200 88 -34 224 -61 310 -61 81 0 218
26 297 55 86 33 195 94 188 105 -3 5 -29 -4 -57 -21 -62 -37 -150 -72 -238
-95 -96 -26 -290 -23 -395 5 -133 35 -305 129 -369 200 -20 22 -36 27 -36 12z"/>
</g>
</svg>
