<?xml version="1.0" standalone="no"?>
<!DOCTYPE svg PUBLIC "-//W3C//DTD SVG 20010904//EN"
 "http://www.w3.org/TR/2001/REC-SVG-20010904/DTD/svg10.dtd">
<svg version="1.0" xmlns="http://www.w3.org/2000/svg"
 width="300.000000pt" height="212.000000pt" viewBox="0 0 300.000000 212.000000"
 preserveAspectRatio="xMidYMid meet">
<metadata>
Created by potrace 1.10, written by Peter Selinger 2001-2011
</metadata>
<g transform="translate(0.000000,212.000000) scale(0.100000,-0.100000)"
fill="#000000" stroke="none">
<path d="M930 1669 c-305 -242 -560 -447 -567 -456 -15 -20 0 -53 25 -53 10 0
81 51 159 114 77 62 145 116 149 119 5 3 8 -290 6 -666 -1 -370 0 -682 3 -695
l5 -22 790 0 790 0 5 23 c3 12 4 324 3 694 -2 369 0 669 4 666 5 -2 72 -56
150 -118 79 -63 151 -115 160 -115 25 0 40 33 25 53 -23 31 -1121 897 -1136
897 -9 0 -266 -198 -571 -441z m938 67 l362 -290 0 -683 0 -683 -355 -2 -355
-3 0 112 0 112 38 6 c192 32 329 168 363 359 15 87 10 92 -77 77 -128 -23
-237 -95 -294 -195 l-30 -51 0 106 0 106 58 12 c87 17 157 55 221 118 66 67
105 141 122 236 16 86 11 91 -71 78 -127 -21 -246 -98 -302 -197 -16 -30 -31
-54 -31 -54 -1 0 0 39 2 86 3 80 6 91 38 135 39 55 69 132 78 205 14 100 -32
242 -104 324 l-31 35 -31 -35 c-42 -47 -87 -143 -100 -215 -19 -106 11 -234
76 -319 29 -39 33 -50 37 -129 2 -48 3 -87 1 -87 -1 0 -12 19 -24 41 -32 63
-111 136 -183 170 -70 33 -183 56 -199 40 -14 -14 10 -136 40 -200 34 -71 126
-164 195 -196 29 -14 78 -30 109 -36 l57 -11 4 -107 c3 -58 4 -107 2 -109 -1
-2 -15 21 -32 51 -58 102 -167 175 -296 198 -87 15 -92 10 -77 -77 32 -183
170 -324 346 -355 l60 -10 0 -110 0 -109 -357 0 -358 0 0 683 0 682 363 291
c199 161 365 291 368 290 3 0 168 -131 367 -290z m-341 -139 c54 -79 68 -127
68 -233 0 -96 -2 -105 -35 -170 -29 -57 -39 -69 -60 -69 -21 0 -31 12 -60 69
-33 65 -35 74 -35 170 0 84 4 109 23 151 24 52 63 115 72 115 3 0 15 -15 27
-33z m-270 -517 c113 -52 204 -170 220 -286 l6 -47 -47 6 c-139 19 -269 135
-310 276 -26 87 -24 94 27 86 23 -4 70 -19 104 -35z m633 21 c0 -38 -38 -139
-69 -184 -59 -87 -159 -150 -257 -164 l-47 -6 6 47 c20 142 149 281 294 315
60 14 73 13 73 -8z m-689 -407 c141 -41 257 -171 276 -309 7 -54 0 -56 -98
-25 -120 38 -211 129 -249 249 -34 109 -30 114 71 85z m689 -2 c0 -37 -33
-128 -62 -175 -56 -88 -165 -160 -264 -174 l-47 -6 7 49 c18 134 128 261 265
305 74 24 101 24 101 1z"/>
</g>
</svg>
