<?xml version="1.0" standalone="no"?>
<!DOCTYPE svg PUBLIC "-//W3C//DTD SVG 20010904//EN"
 "http://www.w3.org/TR/2001/REC-SVG-20010904/DTD/svg10.dtd">
<svg version="1.0" xmlns="http://www.w3.org/2000/svg"
 width="300.000000pt" height="212.000000pt" viewBox="0 0 300.000000 212.000000"
 preserveAspectRatio="xMidYMid meet">
<metadata>
Created by potrace 1.10, written by Peter Selinger 2001-2011
</metadata>
<g transform="translate(0.000000,212.000000) scale(0.100000,-0.100000)"
fill="#000000" stroke="none">
<path d="M1399 1892 c-134 -45 -227 -153 -245 -286 l-7 -46 -107 0 c-93 0
-111 -3 -134 -21 -14 -11 -30 -28 -35 -37 -5 -9 -24 -286 -42 -615 l-33 -597
21 -28 c39 -53 23 -52 688 -52 589 0 622 1 651 19 57 35 57 23 21 666 -22 379
-38 598 -46 612 -21 40 -62 53 -169 53 -95 0 -100 1 -106 23 -3 12 -6 31 -6
42 0 36 -48 124 -95 174 -88 94 -236 132 -356 93z m229 -86 c81 -42 137 -117
157 -213 l7 -33 -287 0 -288 0 7 43 c29 183 238 288 404 203z m-418 -281 c0
-7 -6 -18 -14 -24 -11 -9 -18 -8 -30 4 -9 9 -16 18 -16 20 0 2 7 11 16 20 12
12 19 13 30 4 8 -6 14 -17 14 -24z m640 1 c0 -8 -7 -19 -16 -26 -12 -11 -18
-11 -30 2 -13 12 -14 20 -5 37 10 17 15 19 31 11 11 -6 20 -17 20 -24z m-700
-135 c0 -109 10 -132 49 -111 19 10 21 20 21 110 l0 100 285 0 285 0 0 -99 c0
-109 10 -132 49 -111 19 10 21 20 21 110 l0 100 100 0 c95 0 101 -1 109 -22
15 -38 71 -1161 59 -1176 -8 -9 -145 -12 -623 -12 -531 0 -614 2 -625 15 -10
12 -6 131 20 592 18 329 36 583 42 591 7 8 42 12 109 12 l99 0 0 -99z"/>
</g>
</svg>
