<?xml version="1.0" standalone="no"?>
<!DOCTYPE svg PUBLIC "-//W3C//DTD SVG 20010904//EN"
 "http://www.w3.org/TR/2001/REC-SVG-20010904/DTD/svg10.dtd">
<svg version="1.0" xmlns="http://www.w3.org/2000/svg"
 width="300.000000pt" height="212.000000pt" viewBox="0 0 300.000000 212.000000"
 preserveAspectRatio="xMidYMid meet">
<metadata>
Created by potrace 1.10, written by Peter Selinger 2001-2011
</metadata>
<g transform="translate(0.000000,212.000000) scale(0.100000,-0.100000)"
fill="#000000" stroke="none">
<path d="M1100 1873 c-26 -23 -36 -46 -59 -138 l-27 -110 -235 -5 c-193 -4
-239 -8 -264 -22 -40 -22 -81 -66 -94 -101 -7 -19 -11 -214 -11 -579 0 -534 1
-553 20 -594 12 -24 39 -54 62 -70 l41 -29 967 0 967 0 41 29 c23 16 50 46 62
70 19 41 20 60 20 594 0 365 -4 560 -11 579 -13 35 -54 79 -94 101 -25 14 -71
18 -265 22 l-234 5 -27 109 c-22 93 -31 114 -58 138 l-31 28 -370 0 -370 0
-30 -27z m752 -56 c7 -7 26 -67 42 -133 16 -65 33 -125 39 -131 7 -10 70 -13
254 -13 273 0 293 -4 319 -65 21 -50 21 -1059 0 -1109 -30 -71 43 -66 -1006
-66 -1049 0 -976 -5 -1006 66 -21 50 -21 1059 0 1109 26 61 46 65 319 65 184
0 247 3 254 13 6 6 23 66 39 131 16 66 35 126 42 133 20 19 684 19 704 0z"/>
<path d="M1430 1449 c-124 -16 -235 -74 -323 -169 -283 -305 -122 -798 289
-885 87 -18 121 -18 209 0 189 40 348 183 406 364 32 98 30 232 -4 329 -33 94
-75 159 -146 224 -115 107 -272 157 -431 137z m233 -99 c116 -44 223 -151 267
-268 96 -252 -52 -538 -315 -608 -241 -65 -496 86 -560 331 -63 242 83 491
326 560 75 21 206 14 282 -15z"/>
<path d="M1400 1183 c-64 -23 -142 -105 -165 -172 -21 -64 -17 -159 10 -211
24 -48 82 -107 130 -133 32 -17 57 -22 125 -22 98 0 141 18 201 82 51 53 71
97 77 169 7 89 -18 155 -82 219 -80 81 -189 105 -296 68z m165 -70 c39 -10 92
-54 115 -95 75 -134 -25 -303 -180 -303 -196 0 -281 259 -121 370 57 39 111
47 186 28z"/>
<path d="M589 1424 c-9 -11 -10 -20 -2 -32 8 -14 31 -18 126 -20 109 -2 116
-2 122 18 13 41 -9 50 -125 50 -86 0 -110 -3 -121 -16z"/>
</g>
</svg>
