<?xml version="1.0" standalone="no"?>
<!DOCTYPE svg PUBLIC "-//W3C//DTD SVG 20010904//EN"
 "http://www.w3.org/TR/2001/REC-SVG-20010904/DTD/svg10.dtd">
<svg version="1.0" xmlns="http://www.w3.org/2000/svg"
 width="300.000000pt" height="212.000000pt" viewBox="0 0 300.000000 212.000000"
 preserveAspectRatio="xMidYMid meet">
<metadata>
Created by potrace 1.10, written by Peter Selinger 2001-2011
</metadata>
<g transform="translate(0.000000,212.000000) scale(0.100000,-0.100000)"
fill="#000000" stroke="none">
<path d="M1379 2110 c-229 -21 -438 -121 -616 -293 -143 -139 -239 -302 -290
-495 -24 -86 -27 -116 -27 -262 0 -147 3 -176 27 -265 104 -387 415 -686 801
-772 88 -19 345 -22 431 -4 432 89 765 429 840 860 108 617 -356 1204 -975
1233 -58 3 -144 2 -191 -2z m366 -58 c390 -103 677 -402 757 -792 26 -124 21
-335 -10 -452 -50 -185 -135 -332 -271 -469 -135 -135 -282 -220 -468 -271
-66 -19 -105 -22 -253 -22 -148 0 -187 4 -252 22 -286 79 -511 257 -651 512
-137 251 -156 585 -48 853 124 312 396 547 716 620 109 25 112 26 260 23 103
-2 161 -9 220 -24z"/>
<path d="M1495 1598 c-11 -6 -29 -19 -41 -30 -20 -18 -21 -18 -20 3 1 12 -5
24 -11 26 -10 3 -13 -11 -13 -53 0 -54 -1 -57 -15 -38 -21 31 -65 46 -126 42
-53 -3 -54 -3 -51 -32 8 -75 61 -119 145 -120 l47 0 0 -38 0 -38 -139 0 c-120
0 -142 -2 -162 -19 -12 -10 -46 -72 -74 -137 l-51 -119 -48 -6 c-73 -8 -76
-16 -76 -206 0 -161 0 -164 25 -188 20 -20 34 -25 78 -25 49 0 55 -2 61 -24 3
-13 22 -38 41 -55 30 -26 44 -31 85 -31 41 0 55 5 84 30 19 17 37 43 41 58 l5
27 218 0 217 0 16 -36 c25 -54 63 -79 120 -79 40 0 55 5 84 31 19 17 38 42 41
55 6 22 12 24 61 24 44 0 58 5 78 25 25 24 25 27 25 190 0 210 3 205 -140 205
l-99 0 -96 135 c-111 154 -100 148 -263 143 l-102 -3 0 73 0 72 55 0 c46 0 59
4 89 31 33 29 62 92 50 111 -8 12 -116 9 -139 -4z m105 -34 c0 -8 -13 -29 -29
-45 -24 -24 -38 -29 -75 -29 -47 0 -54 7 -36 40 23 43 140 71 140 34z m-250
-61 c33 -23 49 -44 50 -66 0 -15 -6 -16 -42 -11 -54 8 -83 26 -103 64 l-16 30
44 0 c24 0 53 -7 67 -17z m60 -338 l0 -125 -195 0 c-107 0 -195 3 -195 6 0 19
94 221 107 232 12 8 59 12 150 12 l133 0 0 -125z m287 103 c19 -21 139 -186
157 -215 6 -10 -38 -13 -203 -13 l-211 0 0 125 0 125 118 0 c110 0 120 -2 139
-22z m401 -270 c26 -26 13 -37 -45 -40 l-58 -3 -3 -47 -3 -48 60 0 61 0 0 -65
0 -65 -80 0 c-62 0 -87 4 -112 20 -18 11 -49 20 -68 20 -19 0 -50 -9 -68 -20
-30 -19 -50 -20 -282 -20 -232 0 -252 1 -282 20 -42 25 -94 25 -136 0 -25 -16
-50 -20 -112 -20 l-80 0 0 65 0 65 61 0 c81 0 77 24 -4 28 l-57 3 0 47 c0 27
5 53 12 60 17 17 1179 17 1196 0z m12 -88 c0 -17 -7 -20 -45 -20 -38 0 -45 3
-45 20 0 17 7 20 45 20 38 0 45 -3 45 -20z m-911 -184 c90 -47 53 -186 -49
-186 -102 0 -141 136 -52 184 35 19 66 20 101 2z m728 -21 c55 -64 9 -165 -75
-165 -75 0 -121 70 -92 141 26 63 122 77 167 24z m-901 -21 c-3 -9 -6 -20 -6
-25 0 -16 -97 -10 -114 7 -28 27 -17 34 55 34 61 0 70 -2 65 -16z m700 0 c-3
-9 -6 -20 -6 -25 0 -5 -93 -9 -220 -9 -127 0 -220 4 -220 9 0 5 -3 16 -6 25
-5 14 18 16 226 16 208 0 231 -2 226 -16z m384 1 c0 -8 -9 -19 -19 -25 -24
-12 -111 -13 -111 -1 0 5 -3 16 -6 25 -5 14 4 16 65 16 56 0 71 -3 71 -15z"/>
<path d="M1290 876 c0 -13 12 -16 56 -16 73 0 70 24 -4 28 -42 2 -52 0 -52
-12z"/>
<path d="M1445 880 c-3 -5 0 -13 8 -16 23 -8 102 0 102 11 0 14 -102 19 -110
5z"/>
<path d="M1607 883 c-17 -16 -3 -23 48 -23 42 0 55 3 55 15 0 11 -12 15 -48
15 -27 0 -52 -3 -55 -7z"/>
<path d="M1370 795 c0 -13 10 -15 50 -13 67 4 69 22 3 26 -43 2 -53 0 -53 -13z"/>
<path d="M1527 804 c-14 -15 7 -24 54 -24 37 0 49 4 49 15 0 11 -12 15 -48 15
-27 0 -52 -3 -55 -6z"/>
<path d="M1112 678 c-21 -21 -14 -66 13 -84 23 -15 27 -15 50 0 27 18 34 63
13 84 -15 15 -61 15 -76 0z m56 -40 c-2 -13 -10 -23 -18 -23 -8 0 -16 10 -18
23 -3 17 2 22 18 22 16 0 21 -5 18 -22z"/>
<path d="M1812 678 c-21 -21 -14 -66 12 -83 28 -19 58 -9 76 26 25 45 -51 94
-88 57z m63 -28 c9 -15 -14 -40 -31 -33 -22 8 -18 43 5 43 11 0 23 -5 26 -10z"/>
</g>
</svg>
